<?xml version="1.0" encoding="iso-8859-1"?>
<!-- Uploaded to: SVG Repo, www.svgrepo.com, Generator: SVG Repo Mixer Tools -->
<svg version="1.1" id="Layer_1" xmlns="http://www.w3.org/2000/svg" xmlns:xlink="http://www.w3.org/1999/xlink" 
	 viewBox="0 0 512.001 512.001" xml:space="preserve">
<path style="fill:#690812;" d="M240.587,109.836l-44.448-20.742l34.971-74.94C235.14,5.519,243.805,0,253.334,0h146.131
	c13.545,0,24.525,10.98,24.525,24.525v74.94h-49.05V49.05H268.952L240.587,109.836z"/>
<g>
	<polygon style="fill:#58020E;" points="208.727,62.118 196.138,89.094 240.587,109.836 262.854,62.118 	"/>
	<rect x="374.945" y="62.118" style="fill:#58020E;" width="49.05" height="37.35"/>
</g>
<rect x="103.506" y="90.772" transform="matrix(-0.7071 0.7071 -0.7071 -0.7071 312.1776 106.2497)" style="fill:#991718;" width="61.156" height="54.014"/>
<path style="fill:#DE3205;" d="M185.644,85.189l-83.617,83.617c-5.009,5.009-7.823,11.803-7.823,18.887v297.599
	c0,14.751,11.959,26.709,26.709,26.709h292.129c14.751,0,26.709-11.959,26.709-26.709V104.074c0-14.751-11.959-26.709-26.709-26.709
	H204.53C197.446,77.366,190.653,80.18,185.644,85.189z"/>
<path style="fill:#9D2217;" d="M413.043,77.366H266.887v434.635h146.154c14.751,0,26.709-11.959,26.709-26.71V104.074
	C439.752,89.324,427.794,77.366,413.043,77.366z"/>
<path style="fill:#3E3E42;" d="M152.541,99.378l-36.856,36.856c-6.988,6.988-18.317,6.988-25.305,0L77.49,123.343
	c-6.988-6.988-6.988-18.317,0-25.305l36.856-36.856c6.988-6.988,18.317-6.988,25.305,0l12.891,12.891
	C159.529,81.06,159.529,92.39,152.541,99.378z"/>
<g>
	<path style="fill:#6E190C;" d="M175.828,403.778c-4.593,0-9.185-1.751-12.688-5.257c-7.008-7.008-7.008-18.37,0-25.378
		l182.299-182.301c7.007-7.008,18.37-7.008,25.378,0c7.008,7.008,7.008,18.37,0,25.378L188.517,398.522
		C185.013,402.026,180.42,403.778,175.828,403.778z"/>
	<path style="fill:#6E190C;" d="M358.128,403.778c-4.593,0-9.184-1.751-12.688-5.257L163.139,216.222
		c-7.008-7.008-7.008-18.37,0-25.378c7.007-7.008,18.37-7.008,25.378,0l182.299,182.301c7.008,7.008,7.008,18.37,0,25.378
		C367.314,402.025,362.72,403.778,358.128,403.778z"/>
</g>
<path style="fill:#57565C;" d="M95.918,79.61l38.196,38.196l18.428-18.428c6.988-6.988,6.988-18.317,0-25.305l-12.891-12.891
	c-6.988-6.988-18.317-6.988-25.305,0L95.918,79.61z"/>
</svg>